HIERARCHY
ROOT hip
{
	OFFSET 0.00000 0.00000 0.00000
	CHANNELS 6 Xposition Yposition Zposition Zrotation Yrotation Xrotation 
	JOINT rightuplegdummy
	{
		OFFSET 0 0 0
		CHANNELS 3 Zrotation Yrotation Xrotation
		JOINT rightupleg
		{
			OFFSET -3.52197 -3.41223 0.04002
			CHANNELS 3 Zrotation Yrotation Xrotation
			JOINT rightleg
			{
				OFFSET 0.00006 -17.42390 1.60435
				CHANNELS 3 Zrotation Yrotation Xrotation
				JOINT rightfoot
				{
					OFFSET 0.06153 -16.50078 -1.63901
					CHANNELS 3 Zrotation Yrotation Xrotation
					JOINT righttoes
					{
						OFFSET 0.00298 -1.73825 3.34613
						CHANNELS 3 Zrotation Yrotation Xrotation
						End Site
						{
							OFFSET 0.00480 -0.05416 3.85043
						}
					}
				}
			}
		}
	}
	JOINT spinedummy
	{
		OFFSET 0 0 0
		CHANNELS 3 Zrotation Yrotation Xrotation
		JOINT spine
		{
			OFFSET 0.00000 4.68130 0.00000
			CHANNELS 3 Zrotation Yrotation Xrotation
			JOINT spine1
			{
				OFFSET -0.00000 10.10138 0.05002
				CHANNELS 3 Zrotation Yrotation Xrotation
				JOINT headdummy
				{
					OFFSET 0 0 0
					CHANNELS 3 Zrotation Yrotation Xrotation
					JOINT head
					{
						OFFSET -0.00000 3.43865 0.00438
						CHANNELS 3 Zrotation Yrotation Xrotation
						End Site
						{
							OFFSET -0.11417 5.02924 0.98962
						}
					}
				}
				JOINT leftshoulder1dummy
				{
					OFFSET 0 0 0
					CHANNELS 3 Zrotation Yrotation Xrotation
					JOINT leftshoulder1
					{
						OFFSET 3.53937 -0.14262 -0.08662
						CHANNELS 3 Zrotation Yrotation Xrotation
						JOINT leftarm
						{
							OFFSET 4.04833 -0.00133 0.12681
							CHANNELS 3 Zrotation Yrotation Xrotation
							JOINT leftforearm
							{
								OFFSET 10.33880 -0.01036 -0.55515
								CHANNELS 3 Zrotation Yrotation Xrotation
								JOINT lefthand
								{
									OFFSET 8.69677 0.07543 0.40060
									CHANNELS 3 Zrotation Yrotation Xrotation
									End Site
									{
										OFFSET 5.28377 -0.21905 0.59205
									}
								}
							}
						}
					}
				}
				JOINT rightshoulderdummy
				{
					OFFSET 0 0 0
					CHANNELS 3 Zrotation Yrotation Xrotation
					JOINT rightshoulder
					{
						OFFSET -3.53937 -0.14262 -0.08660
						CHANNELS 3 Zrotation Yrotation Xrotation
						JOINT rightarm
						{
							OFFSET -4.04833 -0.00133 0.12683
							CHANNELS 3 Zrotation Yrotation Xrotation
							JOINT rightforearm
							{
								OFFSET -10.37987 -0.01039 -0.55511
								CHANNELS 3 Zrotation Yrotation Xrotation
								JOINT righthand
								{
									OFFSET -8.67398 0.07538 0.40058
									CHANNELS 3 Zrotation Yrotation Xrotation
									End Site
									{
										OFFSET -5.24810 -0.21916 0.59204
									}
								}
							}
						}
					}
				}
			}
		}
	}
	JOINT leftuplegdummy
	{
		OFFSET 0 0 0
		CHANNELS 3 Zrotation Yrotation Xrotation
		JOINT leftupleg
		{
			OFFSET 3.52197 -3.41223 0.04002
			CHANNELS 3 Zrotation Yrotation Xrotation
			JOINT leftleg
			{
				OFFSET -0.00012 -17.42399 1.60337
				CHANNELS 3 Zrotation Yrotation Xrotation
				JOINT leftfoot
				{
					OFFSET -0.09972 -16.50070 -1.63802
					CHANNELS 3 Zrotation Yrotation Xrotation
					JOINT lefttoes
					{
						OFFSET -0.01575 -1.73823 3.34611
						CHANNELS 3 Zrotation Yrotation Xrotation
						End Site
						{
							OFFSET 0.03150 -0.01868 3.85031
						}
					}
				}
			}
		}
	}
}
MOTION
Frames: 15
Frame Time: 0.033333
-1.9791 38.9436 -46.0017 6.4016 -7.9972 -2.8163 0.0000 -0.0000 0.0000 -14.7332 -9.1734 17.9185 -11.2220 -23.7873 20.2206 29.9288 -1.4889 -5.7616 0.0000 0.0000 -0.0000 0.0000 -0.0000 0.0000 4.5253 3.0589 16.6220 -11.7405 6.1824 0.9534 -0.0000 -0.0000 -0.0000 -0.6112 -2.5461 -6.2172 -0.0000 -0.0000 -0.0000 -21.5538 1.5903 0.5355 -40.8272 4.9560 -27.6655 8.4177 -72.2964 72.3148 -8.5068 3.7029 0.0857 -0.0000 -0.0000 -0.0000 22.7666 7.9281 3.3203 29.3696 5.6441 2.4169 -0.4467 43.8669 17.2067 -17.2035 8.0598 -1.9418 0.0000 -0.0000 0.0000 -4.4382 10.3021 -15.3823 2.2577 4.2645 18.5776 -7.2671 0.3408 -6.6324 0.0000 0.0000 -0.0000
-1.6291 38.9628 -45.0706 7.3031 -10.7946 -3.9423 0.0000 -0.0000 0.0000 -17.8227 -8.7587 14.0071 -13.6974 -20.1473 29.1267 22.9598 -2.2092 -0.3101 0.0000 0.0000 -0.0000 0.0000 -0.0000 0.0000 1.6920 3.2969 16.6855 -10.3193 5.4631 1.4617 -0.0000 -0.0000 -0.0000 -1.9288 0.3393 -5.2104 -0.0000 -0.0000 -0.0000 -21.8376 0.8396 0.7512 -40.2222 1.4091 -27.0027 8.7992 -72.9952 72.5009 -8.3370 4.9245 -0.0176 -0.0000 -0.0000 -0.0000 22.7509 7.6029 3.2232 30.5364 3.7432 3.2835 -0.4079 41.5794 17.0124 -16.6678 8.6951 -1.9678 0.0000 -0.0000 0.0000 -5.4443 11.5417 -13.0673 2.8984 5.4694 19.4234 -6.9435 0.2035 -8.8618 0.0000 0.0000 -0.0000
-1.3381 38.8980 -44.1805 7.8447 -13.5420 -4.8069 0.0000 -0.0000 0.0000 -19.4170 -7.4946 8.1645 -16.3097 -16.7395 39.4260 14.3055 -1.9023 3.6134 0.0000 0.0000 -0.0000 0.0000 -0.0000 0.0000 -1.3707 3.3148 16.6061 -8.5371 4.2669 1.8468 -0.0000 -0.0000 -0.0000 -3.3923 3.9327 -5.0612 -0.0000 -0.0000 -0.0000 -21.1884 0.0686 0.9473 -40.2732 -2.3750 -26.4020 9.1867 -73.8264 71.7305 -8.3304 5.2806 -0.0464 -0.0000 -0.0000 -0.0000 23.1821 6.8771 3.0559 31.1929 1.9980 4.6286 -0.2904 38.5205 15.4021 -18.4884 8.7508 -2.1995 0.0000 -0.0000 0.0000 -6.0712 12.6612 -11.5501 3.6743 6.6132 21.1229 -7.3593 0.0483 -11.6134 0.0000 0.0000 -0.0000
-1.0792 38.8434 -43.2268 8.1874 -16.5109 -5.8716 0.0000 -0.0000 0.0000 -20.2779 -6.0583 2.8545 -14.3906 -11.4436 46.2134 13.1114 -1.6051 2.5108 0.0000 0.0000 -0.0000 0.0000 -0.0000 0.0000 -4.7723 3.1443 16.4152 -5.6529 2.6404 2.6469 -0.0000 -0.0000 -0.0000 -5.2439 8.5103 -5.2796 -0.0000 -0.0000 -0.0000 -20.6121 -0.8342 1.1740 -40.5156 -5.5990 -26.0894 10.3644 -75.7102 69.5209 -8.0632 5.7644 -0.0859 -0.0000 -0.0000 -0.0000 23.0401 6.6137 2.9645 31.5509 -0.2035 5.9288 -0.1192 35.5669 12.9286 -19.3167 8.2165 -2.2191 0.0000 -0.0000 0.0000 -6.3817 13.7156 -9.4784 4.5445 7.9329 22.3833 -8.0504 -0.1069 -14.1212 0.0000 0.0000 -0.0000
-0.8532 38.9155 -42.0789 7.5923 -19.0042 -6.3391 0.0000 -0.0000 0.0000 -19.4723 -5.5747 -2.2565 -8.8629 -5.9129 49.7351 11.2583 -1.0178 -1.0083 0.0000 0.0000 -0.0000 0.0000 -0.0000 0.0000 -7.1579 2.2844 15.6381 -2.1302 0.5515 3.2987 -0.0000 -0.0000 -0.0000 -7.2975 12.9691 -5.6710 -0.0000 -0.0000 -0.0000 -20.4931 -1.2319 1.2753 -40.1176 -9.5584 -25.5349 11.3754 -76.9583 68.7743 -6.5233 5.1826 -0.0394 -0.0000 -0.0000 -0.0000 22.9831 6.1442 2.8218 31.4584 -2.3841 6.9043 -0.0116 31.5947 11.1945 -19.3622 8.3651 -2.2482 0.0000 -0.0000 0.0000 -5.9599 14.4317 -6.8282 5.2666 9.3503 22.2575 -7.4119 -0.2018 -15.8784 0.0000 0.0000 -0.0000
-0.7001 38.8956 -40.8938 6.8268 -20.8613 -6.2080 0.0000 -0.0000 0.0000 -18.0630 -6.4318 -7.3033 -6.2989 -3.9081 51.1740 12.8899 -1.0543 -2.0847 0.0000 0.0000 -0.0000 0.0000 -0.0000 0.0000 -9.8298 1.0943 14.4224 1.5396 -1.8827 3.8846 -0.0000 -0.0000 -0.0000 -9.2703 18.0422 -6.3431 -0.0000 -0.0000 -0.0000 -19.6019 -2.2751 1.5060 -40.2938 -14.0248 -25.4272 12.5569 -78.1406 68.4635 -6.2836 4.0288 0.0338 -0.0000 -0.0000 -0.0000 23.1485 5.4809 2.6417 30.8689 -4.8724 7.5159 0.1859 27.3670 7.4928 -20.8219 8.5362 -2.4582 0.0000 -0.0000 0.0000 -5.5899 14.4892 -4.9701 6.1591 10.8797 22.7054 -8.1669 -0.3462 -17.6830 0.0000 0.0000 -0.0000
-0.5968 38.8791 -39.6086 6.2192 -22.6925 -5.9014 0.0000 -0.0000 0.0000 -16.3198 -7.9353 -12.2950 -5.8587 -3.7196 50.6041 13.6484 -0.8431 -4.4603 0.0000 0.0000 -0.0000 0.0000 -0.0000 0.0000 -12.9053 -0.0210 13.3687 5.7504 -4.2492 3.8831 -0.0000 -0.0000 -0.0000 -11.2346 22.5552 -7.1424 -0.0000 -0.0000 -0.0000 -18.5244 -3.7525 1.8215 -40.0745 -18.1463 -25.0264 14.2569 -79.5408 66.2264 -6.0401 3.9666 0.0355 -0.0000 -0.0000 -0.0000 23.2450 4.5095 2.3647 30.1292 -7.9463 7.4116 0.4751 23.3363 2.6638 -22.8839 8.7893 -2.7566 0.0000 -0.0000 0.0000 -5.5326 14.3524 -2.8230 6.9690 12.5751 22.4439 -8.2047 -0.4393 -19.0503 0.0000 0.0000 -0.0000
-0.5401 38.7975 -38.2906 5.9304 -24.5714 -5.9122 0.0000 -0.0000 0.0000 -14.2624 -9.1293 -16.8940 -6.0254 -4.1502 48.4547 14.2205 -0.6853 -6.0110 0.0000 0.0000 -0.0000 0.0000 -0.0000 0.0000 -16.6377 -1.0732 13.2300 10.6660 -6.7413 3.2778 -0.0000 -0.0000 -0.0000 -13.2616 27.4345 -8.1684 -0.0000 -0.0000 -0.0000 -18.0272 -4.5885 1.9915 -39.0369 -23.1828 -24.9543 15.4946 -80.4395 64.2168 -5.3092 4.0945 0.0227 -0.0000 -0.0000 -0.0000 22.8065 3.6418 2.0784 29.6580 -10.9671 5.6327 1.8106 20.1243 -5.7243 -26.5887 7.4360 -2.9321 0.0000 -0.0000 0.0000 -5.8286 14.1210 -0.3518 7.7576 14.3282 22.0991 -8.3044 -0.5527 -20.6319 0.0000 0.0000 -0.0000
-0.5565 38.6288 -36.9200 5.6329 -26.7604 -5.8796 0.0000 -0.0000 0.0000 -11.5883 -9.8342 -21.1048 -5.1893 -4.0844 44.7285 15.4086 -0.5827 -7.2518 0.0000 0.0000 -0.0000 0.0000 -0.0000 0.0000 -19.9304 -2.1384 12.7118 14.9089 -8.9807 3.5563 -0.0000 -0.0000 -0.0000 -15.4625 31.9500 -10.3971 -0.0000 -0.0000 -0.0000 -17.1356 -5.8882 2.2347 -36.9804 -27.3962 -26.0274 17.6152 -81.6375 60.4126 -6.1536 1.9513 0.1600 -0.0000 -0.0000 -0.0000 22.5483 2.7882 1.8157 28.7104 -13.9212 -1.9532 4.5699 16.7547 -6.0057 -28.7889 7.3397 -3.1637 0.0000 -0.0000 0.0000 -6.1579 14.3840 2.0778 8.4941 15.9435 21.9211 -8.4069 -0.6568 -22.0571 0.0000 0.0000 -0.0000
-0.6076 38.4497 -35.4676 5.1311 -28.9074 -5.6188 0.0000 -0.0000 0.0000 -8.2452 -10.1604 -25.0363 -4.5057 -4.1062 40.2869 14.8440 -0.5202 -7.5675 0.0000 0.0000 -0.0000 0.0000 -0.0000 0.0000 -22.2680 -3.3802 12.5665 18.6857 -11.0820 3.4182 -0.0000 -0.0000 -0.0000 -17.8775 36.2104 -12.7077 -0.0000 -0.0000 -0.0000 -16.1027 -6.8407 2.3626 -34.5120 -31.7928 -26.8723 18.9872 -82.3060 57.8816 -5.8955 0.6479 0.2339 -0.0000 -0.0000 -0.0000 21.8277 1.9033 1.5239 27.9665 -17.2460 -10.4137 7.1679 13.5034 -3.0269 -29.5233 7.4185 -3.2683 0.0000 -0.0000 0.0000 -6.5245 14.3446 4.6961 9.3635 18.2815 21.2348 -8.1160 -0.6855 -22.8979 0.0000 0.0000 -0.0000
-0.7318 38.1989 -33.9574 4.3643 -31.1150 -5.0438 0.0000 -0.0000 0.0000 -4.4750 -9.3931 -28.6582 -3.0326 -3.2107 35.3197 15.9987 -0.6269 -7.0744 0.0000 0.0000 -0.0000 0.0000 -0.0000 0.0000 -24.1256 -4.6667 12.4719 22.2126 -13.0949 3.2500 -0.0000 -0.0000 -0.0000 -19.8167 40.0219 -14.3591 -0.0000 -0.0000 -0.0000 -14.8387 -7.6320 2.4162 -31.4048 -35.6736 -27.9853 21.2486 -83.1339 54.5899 -5.8416 -0.3830 0.2936 -0.0000 -0.0000 -0.0000 21.0482 0.8804 1.2034 26.8163 -20.2035 -16.7618 9.0212 9.9092 0.2302 -28.8722 6.5736 -2.9861 0.0000 -0.0000 0.0000 -6.4832 15.1657 7.4053 9.5256 19.7202 20.1111 -8.5499 -0.8204 -24.2049 0.0000 0.0000 -0.0000
-0.9209 37.8714 -32.3932 3.2304 -32.6908 -4.2975 0.0000 -0.0000 0.0000 -0.5829 -8.5655 -31.5995 -1.7527 -2.1025 30.3449 17.7316 -0.7281 -6.8305 0.0000 0.0000 -0.0000 0.0000 -0.0000 0.0000 -25.3270 -6.2130 12.9830 25.1463 -15.2932 3.0447 -0.0000 -0.0000 -0.0000 -22.2911 44.0900 -16.7145 -0.0000 -0.0000 -0.0000 -12.8648 -7.8027 2.2483 -28.4225 -38.8432 -29.2082 20.1778 -82.8891 53.9284 -4.7458 0.2070 0.2061 -0.0000 -0.0000 -0.0000 20.1362 -0.1147 0.9024 25.7555 -22.7786 -19.1949 9.5737 6.9196 3.5412 -26.5531 5.8565 -2.5683 0.0000 -0.0000 0.0000 -5.9812 15.8717 10.1778 9.4673 20.8024 19.3226 -9.3093 -0.9816 -25.1961 0.0000 0.0000 -0.0000
-1.1951 37.5261 -30.7912 2.1371 -32.7202 -3.4964 0.0000 -0.0000 0.0000 2.5095 -8.1586 -33.8496 -0.8104 -0.9628 25.5014 19.6570 -0.7699 -7.0533 0.0000 0.0000 -0.0000 0.0000 -0.0000 0.0000 -27.2486 -7.6252 14.2192 29.2262 -17.8537 2.4255 -0.0000 -0.0000 -0.0000 -24.5992 46.9765 -18.7544 -0.0000 -0.0000 -0.0000 -10.9425 -8.6443 2.2048 -24.7067 -41.7240 -31.7229 15.5867 -80.9970 57.6792 -2.4658 -0.7547 0.1406 -0.0000 -0.0000 -0.0000 18.8566 -1.1981 0.5860 25.0732 -25.6047 -19.7249 9.5170 5.0392 4.0058 -23.6855 5.9473 -2.2960 0.0000 -0.0000 0.0000 -5.4594 15.2620 13.2444 8.9562 21.6455 18.2414 -9.7137 -1.1465 -26.6272 0.0000 0.0000 -0.0000
-1.5621 37.1274 -29.1128 1.0942 -32.0157 -2.4178 0.0000 -0.0000 0.0000 4.1839 -6.8359 -36.0614 0.0651 0.5256 21.6345 19.4203 -0.8008 -6.8054 0.0000 0.0000 -0.0000 0.0000 -0.0000 0.0000 -28.8086 -9.0286 14.7702 32.5337 -20.3757 2.8605 -0.0000 -0.0000 -0.0000 -27.2184 48.3565 -21.6461 -0.0000 -0.0000 -0.0000 -7.8531 -9.3644 1.9799 -21.6916 -44.9583 -34.2747 11.0029 -77.2331 62.2515 1.6427 -1.0610 -0.0987 -0.0000 -0.0000 -0.0000 18.0988 -2.5711 0.2309 25.1953 -28.5138 -21.8917 9.0418 5.1783 1.2076 -21.7143 5.4936 -2.0140 0.0000 -0.0000 0.0000 -5.1098 13.4000 16.3702 7.9871 22.3964 16.7194 -10.5507 -1.3796 -27.9927 0.0000 0.0000 -0.0000
-1.9884 36.7866 -27.3860 -0.1369 -30.5123 -1.1773 0.0000 -0.0000 0.0000 4.2504 -4.5268 -37.7211 0.3241 1.1412 19.4159 18.1164 -0.6583 -7.4202 0.0000 0.0000 -0.0000 0.0000 -0.0000 0.0000 -30.0602 -10.2471 16.0226 36.0165 -22.6177 2.2709 -0.0000 -0.0000 -0.0000 -29.6263 49.1864 -24.1289 -0.0000 -0.0000 -0.0000 -4.9181 -9.9443 1.7193 -19.1909 -47.7823 -36.1510 7.8194 -72.1191 66.8427 6.6456 -1.9902 -0.3807 -0.0000 -0.0000 -0.0000 17.3901 -3.7569 -0.0615 25.8061 -31.0860 -24.5708 8.4611 6.1852 -3.9152 -20.9758 4.3700 -1.7442 0.0000 -0.0000 0.0000 -4.4586 11.5147 19.1900 7.2716 22.3345 15.6776 -12.2216 -1.6360 -28.0961 0.0000 0.0000 -0.0000
